<svg width="10" height="17" viewBox="0 0 10 17" fill="none" xmlns="http://www.w3.org/2000/svg">
<path d="M0.347656 8.65527C0.347656 8.96289 0.461914 9.22656 0.708008 9.45508L7.5459 16.1523C7.73926 16.3457 7.98535 16.4512 8.27539 16.4512C8.85547 16.4512 9.32129 15.9941 9.32129 15.4053C9.32129 15.1152 9.19824 14.8604 9.00488 14.6582L2.84375 8.65527L9.00488 2.65234C9.19824 2.4502 9.32129 2.18652 9.32129 1.90527C9.32129 1.31641 8.85547 0.859375 8.27539 0.859375C7.98535 0.859375 7.73926 0.964844 7.5459 1.1582L0.708008 7.84668C0.461914 8.08398 0.347656 8.34766 0.347656 8.65527Z" fill="#3881F0"/>
</svg>
