<svg width="19" height="22" viewBox="0 0 19 22" fill="none" xmlns="http://www.w3.org/2000/svg">
<path d="M13.841 14.659L14.017 14.836L14.195 14.659C14.4039 14.4501 14.652 14.2843 14.925 14.1713C15.1979 14.0582 15.4905 14 15.786 14C16.0815 14 16.3741 14.0582 16.647 14.1713C16.92 14.2843 17.1681 14.4501 17.377 14.659C17.5859 14.8679 17.7517 15.116 17.8647 15.389C17.9778 15.6619 18.036 15.9545 18.036 16.25C18.036 16.5455 17.9778 16.8381 17.8647 17.111C17.7517 17.384 17.5859 17.6321 17.377 17.841L14.017 21.2L10.659 17.841C10.237 17.419 9.99999 16.8467 9.99999 16.25C9.99999 15.6533 10.237 15.081 10.659 14.659C11.081 14.237 11.6533 14 12.25 14C12.8467 14 13.419 14.237 13.841 14.659ZM8 13V21H0C2.41087e-05 18.9216 0.808937 16.9247 2.25547 15.4323C3.702 13.9398 5.67259 13.069 7.75 13.004L8 13ZM8 0C11.315 0 14 2.685 14 6C14 9.315 11.315 12 8 12C4.685 12 2 9.315 2 6C2 2.685 4.685 0 8 0Z" fill="#9C6AF9"/>
</svg>
